<svg xmlns="http://www.w3.org/2000/svg" width="650" height="150"><g stroke="#fff"><path fill="#fff" stroke-width="3.01" d="M146.73 43.82c-3.05 0-5.76.48-8.14 1.44-2.38.93-4.4 2.2-6.03 3.77-1.6 1.56-2.84 3.35-3.68 5.4-.86 2.02-1.3 4.13-1.3 6.3 0 2.72.42 5 1.24 6.87.82 1.84 1.9 3.38 3.27 4.62 1.36 1.22 2.9 2.2 4.63 2.97 1.72.75 3.5 1.43 5.3 2.02 1.8.57 3.57 1.12 5.3 1.66 1.72.54 3.26 1.2 4.62 1.95 1.36.76 2.44 1.7 3.26 2.84.83 1.13 1.24 2.6 1.24 4.37 0 1.58-.27 3.02-.8 4.32-.54 1.3-1.32 2.42-2.33 3.35-.98.9-2.2 1.62-3.68 2.13-1.47.48-3.14.72-5 .72-2.3 0-4.25-.3-5.86-.93-1.58-.62-2.95-1.3-4.1-2.04-1.14-.76-2.1-1.45-2.9-2.07-.75-.62-1.43-.93-2.03-.93-.45 0-.86.1-1.23.34-.33.24-.63.52-.9.86l-2.57 4.32c1.13 1.22 2.4 2.32 3.8 3.3 1.45.97 3 1.8 4.63 2.5 1.64.7 3.38 1.2 5.22 1.58.97.2 1.96.36 2.96.46h5.5c2.15-.2 4.12-.65 5.9-1.35 2.58-1.02 4.75-2.4 6.5-4.16 1.75-1.74 3.08-3.8 3.98-6.13.94-2.35 1.4-4.86 1.4-7.55 0-2.5-.42-4.63-1.27-6.36-.82-1.75-1.9-3.22-3.26-4.4-1.37-1.22-2.9-2.23-4.64-3.02-1.72-.8-3.5-1.48-5.3-2.07-1.8-.63-3.57-1.22-5.3-1.78-1.72-.58-3.26-1.24-4.62-2-1.35-.77-2.45-1.7-3.3-2.76-.82-1.08-1.23-2.43-1.23-4.07 0-1.28.23-2.45.7-3.52.47-1.1 1.16-2.05 2.06-2.84.9-.8 2.03-1.45 3.35-1.9 1.37-.48 2.94-.72 4.72-.72 1.9 0 3.52.24 4.87.72 1.35.45 2.5.97 3.47 1.57 1 .56 1.8 1.1 2.46 1.57.65.45 1.23.68 1.74.68.48 0 .87-.12 1.18-.34.32-.23.6-.58.9-1.06l2.2-4.3c-2.12-2.02-4.62-3.58-7.5-4.65-2.86-1.1-6-1.65-9.42-1.65zm207.98 0c-4.43 0-8.48.76-12.16 2.3-3.65 1.5-6.78 3.65-9.4 6.4-2.64 2.73-4.7 6-6.16 9.82-1.44 3.82-2.16 8.02-2.16 12.6 0 4.57.7 8.77 2.08 12.6 1.38 3.8 3.33 7.08 5.85 9.82 2.54 2.74 5.6 4.88 9.16 6.4 2.73 1.16 5.7 1.88 8.88 2.16h6.53c3.6-.3 6.76-1.05 9.5-2.28 3.58-1.6 6.62-3.9 9.1-6.83l-3.56-3.9c-.36-.38-.8-.58-1.3-.58-.3 0-.56.07-.8.2-.27.12-.5.28-.73.48-1 .93-2.04 1.74-3.1 2.4-1.04.66-2.15 1.2-3.34 1.62-1.16.43-2.44.75-3.86.98-1.38.2-2.95.3-4.7.3-2.9 0-5.57-.53-8.06-1.57-2.5-1.05-4.65-2.57-6.48-4.58-1.84-2-3.28-4.45-4.33-7.34-1.04-2.87-1.57-6.16-1.57-9.86 0-3.65.5-6.9 1.5-9.8 1-2.9 2.42-5.35 4.23-7.33 1.82-2 4-3.52 6.5-4.57 2.53-1.07 5.3-1.6 8.32-1.6 2.58 0 4.72.26 6.45.8 1.72.53 3.16 1.14 4.32 1.82 1.18.65 2.13 1.24 2.83 1.78.74.53 1.37.8 1.9.8.5 0 .87-.1 1.15-.3.32-.2.57-.45.77-.76l2.97-4.2c-2.5-2.34-5.42-4.22-8.78-5.63-3.36-1.42-7.2-2.12-11.53-2.12zm133.32 0c-4.43 0-8.5.76-12.17 2.3-3.64 1.5-6.78 3.65-9.4 6.4-2.64 2.73-4.68 6-6.15 9.82-1.44 3.82-2.17 8.02-2.17 12.6 0 4.57.7 8.77 2.08 12.6 1.4 3.8 3.35 7.08 5.86 9.82 2.55 2.74 5.6 4.88 9.16 6.4 2.72 1.16 5.68 1.88 8.88 2.16h6.52c3.6-.3 6.76-1.05 9.5-2.28 3.57-1.6 6.6-3.9 9.1-6.83l-3.56-3.9c-.37-.38-.8-.58-1.32-.58-.28 0-.55.07-.8.2-.26.12-.5.28-.72.48-1.02.93-2.05 1.74-3.1 2.4-1.04.66-2.16 1.2-3.34 1.62-1.16.43-2.45.75-3.86.98-1.4.2-2.96.3-4.7.3-2.9 0-5.58-.53-8.06-1.57-2.5-1.05-4.65-2.57-6.5-4.58-1.83-2-3.27-4.45-4.3-7.34-1.06-2.87-1.58-6.16-1.58-9.86 0-3.65.5-6.9 1.48-9.8 1.02-2.9 2.43-5.35 4.24-7.33 1.84-2 4-3.52 6.53-4.57 2.5-1.07 5.28-1.6 8.3-1.6 2.58 0 4.73.26 6.45.8 1.73.53 3.17 1.14 4.33 1.82 1.2.65 2.14 1.24 2.85 1.78.73.53 1.37.8 1.9.8.48 0 .87-.1 1.15-.3.3-.2.56-.45.76-.76l2.97-4.2c-2.5-2.34-5.4-4.22-8.77-5.63-3.37-1.42-7.2-2.12-11.54-2.12zm139.64 0c-3.05 0-5.77.48-8.14 1.44-2.38.93-4.38 2.2-6.02 3.77-1.6 1.56-2.84 3.35-3.7 5.4-.84 2.02-1.26 4.13-1.26 6.3 0 2.72.4 5 1.23 6.87.82 1.84 1.9 3.38 3.26 4.62 1.36 1.22 2.9 2.2 4.62 2.97 1.73.75 3.5 1.43 5.3 2.02 1.8.57 3.58 1.12 5.3 1.66 1.72.54 3.27 1.2 4.62 1.95 1.36.76 2.45 1.7 3.27 2.84.82 1.13 1.23 2.6 1.23 4.37 0 1.58-.27 3.02-.8 4.32-.55 1.3-1.32 2.42-2.34 3.35-1 .9-2.22 1.62-3.7 2.13-1.46.48-3.13.72-5 .72-2.28 0-4.23-.3-5.84-.93-1.6-.62-2.97-1.3-4.12-2.04-1.13-.76-2.1-1.45-2.9-2.07-.75-.62-1.43-.93-2.02-.93-.45 0-.86.1-1.23.34-.34.24-.64.52-.9.86l-2.58 4.32c1.13 1.22 2.4 2.32 3.82 3.3 1.44.97 2.98 1.8 4.62 2.5 1.63.7 3.37 1.2 5.2 1.58.97.2 1.96.36 2.97.46h5.5c2.14-.2 4.1-.65 5.9-1.35 2.58-1.02 4.74-2.4 6.5-4.16 1.74-1.74 3.07-3.8 3.98-6.13.8-2 1.23-4.13 1.34-6.37v-2.36c-.12-2-.52-3.73-1.23-5.18-.82-1.75-1.9-3.22-3.26-4.4-1.35-1.22-2.9-2.23-4.6-3.02-1.74-.8-3.5-1.48-5.3-2.07-1.82-.63-3.6-1.22-5.3-1.78-1.74-.58-3.28-1.24-4.63-2-1.36-.77-2.46-1.7-3.3-2.76-.83-1.08-1.24-2.43-1.24-4.07 0-1.28.23-2.45.68-3.52.5-1.1 1.18-2.05 2.1-2.84.9-.8 2-1.45 3.34-1.9 1.35-.48 2.92-.72 4.7-.72 1.9 0 3.52.24 4.88.72 1.36.45 2.5.97 3.47 1.57.98.56 1.8 1.1 2.45 1.57.65.45 1.23.68 1.74.68.47 0 .87-.12 1.18-.34.3-.23.6-.58.9-1.06l2.2-4.3c-2.13-2.02-4.63-3.58-7.5-4.65-2.86-1.1-6-1.65-9.42-1.65zm-457.74.68v7.54h19.42v53.34h8.98V52.04h19.33V44.5h-47.73zm67.44 0l-24.25 60.88h6.97c.76 0 1.4-.22 1.95-.64.53-.45.9-.95 1.1-1.48l5.38-14.12h26.84l5.38 14.12c.23.62.6 1.13 1.1 1.52.5.4 1.16.6 1.96.6h6.95L246.48 44.5h-9.12zm33.38 0l22.3 36.8v24.08h9v-24.1l22.3-36.78h-7.98c-.76 0-1.4.22-1.9.67-.5.43-.87.9-1.15 1.4l-13.18 22.77c-.54 1.05-1.02 2.03-1.44 2.97-.4.94-.75 1.86-1.06 2.76-.34-.9-.74-1.82-1.2-2.75-.4-.93-.9-1.9-1.43-2.96l-13.24-22.77c-.3-.62-.7-1.1-1.18-1.48-.48-.4-1.12-.6-1.9-.6h-7.94zm114.24 0v60.88h9.07V44.5h-9.07zm24 0v60.88h9.04V80.4h5.9c1.13 0 1.98.16 2.54.47.57.28 1.1.78 1.57 1.48l15.05 21.12c.73 1.27 1.9 1.9 3.52 1.9h8.05l-17.12-23.7c-.82-1.2-1.8-2.16-2.93-2.83 2.3-.57 4.34-1.4 6.15-2.46 1.8-1.08 3.33-2.35 4.58-3.82 1.27-1.5 2.23-3.18 2.88-5.04.66-1.87.98-3.86.98-5.98 0-2.6-.45-4.95-1.35-7.04-.88-2.1-2.25-3.87-4.1-5.34-1.85-1.5-4.2-2.64-7.05-3.43-2.83-.82-6.2-1.23-10.13-1.23H409zm109.3 0v60.88h34.86v-7.6h-25.8V44.5h-9.05zm43.73 0v60.88h37.75l.04-7.34h-28.7V78.2h23.05v-7.08H571.1v-19.3h28.65V44.5H562zm-143.98 7.08h8.53c4.6 0 8.05.9 10.34 2.67 2.3 1.78 3.47 4.42 3.47 7.92 0 1.73-.3 3.3-.9 4.75-.6 1.42-1.48 2.65-2.67 3.7-1.18 1-2.67 1.8-4.45 2.36-1.75.57-3.78.85-6.1.85h-8.23V51.58zm-176.12 1.4c.65 2.45 1.3 4.5 1.95 6.1l9.03 23.6H231l9-23.52c.3-.82.6-1.75.92-2.8.34-1.04.67-2.17.98-3.38z" opacity=".98" stroke-linejoin="round"/><path fill="none" stroke-width="12.605" d="M51.75 92.44A42.25 42.25 0 0 1 9.5 50.2 42.25 42.25 0 0 1 51.77 7.95 42.25 42.25 0 0 1 94 50.2a42.25 42.25 0 0 1 0 .1"/><path fill="none" stroke-width="12.605" d="M51.77 57.9A42.25 42.25 0 0 1 94 100.17a42.25 42.25 0 0 1-42.24 42.24A42.25 42.25 0 0 1 9.5 100.16a42.25 42.25 0 0 1 0-.1"/></g></svg>